<mxfile host="app.diagrams.net" agent="Mozilla/5.0 (Macintosh; Intel Mac OS X 10_15_7) AppleWebKit/605.1.15 (KHTML, like Gecko) Version/18.0.1 Safari/605.1.15" version="24.8.6">
  <diagram name="第 1 页" id="XeFT9RAL0jmuDU49KzOn">
    <mxGraphModel dx="1341" dy="771" grid="1" gridSize="10" guides="1" tooltips="1" connect="1" arrows="1" fold="1" page="1" pageScale="1" pageWidth="827" pageHeight="1169" math="0" shadow="0">
      <root>
        <mxCell id="0" />
        <mxCell id="1" parent="0" />
        <mxCell id="E84nc0efOehVYlkrJF3X-14" value="" style="edgeStyle=orthogonalEdgeStyle;rounded=0;orthogonalLoop=1;jettySize=auto;html=1;labelBackgroundColor=none;strokeColor=#23445D;fontColor=default;" edge="1" parent="1" source="o90tf0dQoTygKEmvJ2A5-5" target="E84nc0efOehVYlkrJF3X-9">
          <mxGeometry relative="1" as="geometry" />
        </mxCell>
        <mxCell id="E84nc0efOehVYlkrJF3X-68" style="edgeStyle=orthogonalEdgeStyle;rounded=0;orthogonalLoop=1;jettySize=auto;html=1;entryX=0.5;entryY=0;entryDx=0;entryDy=0;strokeColor=#23445D;" edge="1" parent="1" source="o90tf0dQoTygKEmvJ2A5-5" target="E84nc0efOehVYlkrJF3X-64">
          <mxGeometry relative="1" as="geometry" />
        </mxCell>
        <mxCell id="o90tf0dQoTygKEmvJ2A5-5" value="是否回答正確" style="rhombus;whiteSpace=wrap;html=1;align=center;verticalAlign=middle;labelBackgroundColor=none;fillColor=#182E3E;strokeColor=#FFFFFF;fontColor=#FFFFFF;" parent="1" vertex="1">
          <mxGeometry x="380.52" y="260" width="140" height="105" as="geometry" />
        </mxCell>
        <mxCell id="E84nc0efOehVYlkrJF3X-43" value="" style="edgeStyle=orthogonalEdgeStyle;rounded=0;orthogonalLoop=1;jettySize=auto;html=1;strokeColor=#23445D;" edge="1" parent="1" source="o90tf0dQoTygKEmvJ2A5-18" target="E84nc0efOehVYlkrJF3X-42">
          <mxGeometry relative="1" as="geometry" />
        </mxCell>
        <mxCell id="o90tf0dQoTygKEmvJ2A5-18" value="下一題" style="rounded=0;whiteSpace=wrap;html=1;align=center;verticalAlign=middle;labelBackgroundColor=none;fillColor=#182E3E;strokeColor=#FFFFFF;fontColor=#FFFFFF;" parent="1" vertex="1">
          <mxGeometry x="390.52" y="465" width="120" height="40" as="geometry" />
        </mxCell>
        <mxCell id="E84nc0efOehVYlkrJF3X-38" value="" style="edgeStyle=orthogonalEdgeStyle;rounded=0;orthogonalLoop=1;jettySize=auto;html=1;strokeColor=#23445D;" edge="1" parent="1" source="E84nc0efOehVYlkrJF3X-9" target="o90tf0dQoTygKEmvJ2A5-18">
          <mxGeometry relative="1" as="geometry" />
        </mxCell>
        <mxCell id="E84nc0efOehVYlkrJF3X-9" value="加分" style="rounded=0;whiteSpace=wrap;html=1;align=center;verticalAlign=middle;labelBackgroundColor=none;fillColor=#182E3E;strokeColor=#FFFFFF;fontColor=#FFFFFF;" vertex="1" parent="1">
          <mxGeometry x="390.52" y="390" width="120" height="40" as="geometry" />
        </mxCell>
        <mxCell id="E84nc0efOehVYlkrJF3X-21" value="" style="edgeStyle=orthogonalEdgeStyle;rounded=0;orthogonalLoop=1;jettySize=auto;html=1;labelBackgroundColor=none;strokeColor=#23445D;fontColor=default;" edge="1" parent="1" source="E84nc0efOehVYlkrJF3X-18" target="E84nc0efOehVYlkrJF3X-20">
          <mxGeometry relative="1" as="geometry" />
        </mxCell>
        <mxCell id="E84nc0efOehVYlkrJF3X-18" value="開始" style="ellipse;whiteSpace=wrap;html=1;labelBackgroundColor=none;fillColor=#182E3E;strokeColor=#FFFFFF;fontColor=#FFFFFF;" vertex="1" parent="1">
          <mxGeometry x="60" y="150" width="120" height="80" as="geometry" />
        </mxCell>
        <mxCell id="E84nc0efOehVYlkrJF3X-27" value="" style="edgeStyle=orthogonalEdgeStyle;rounded=0;orthogonalLoop=1;jettySize=auto;html=1;labelBackgroundColor=none;strokeColor=#23445D;fontColor=default;" edge="1" parent="1" source="E84nc0efOehVYlkrJF3X-20" target="E84nc0efOehVYlkrJF3X-26">
          <mxGeometry relative="1" as="geometry" />
        </mxCell>
        <mxCell id="E84nc0efOehVYlkrJF3X-20" value="啟動相機" style="whiteSpace=wrap;html=1;labelBackgroundColor=none;fillColor=#182E3E;strokeColor=#FFFFFF;fontColor=#FFFFFF;" vertex="1" parent="1">
          <mxGeometry x="240" y="160" width="120" height="60" as="geometry" />
        </mxCell>
        <mxCell id="E84nc0efOehVYlkrJF3X-28" value="" style="edgeStyle=orthogonalEdgeStyle;rounded=0;orthogonalLoop=1;jettySize=auto;html=1;labelBackgroundColor=none;strokeColor=#23445D;fontColor=default;" edge="1" parent="1" source="E84nc0efOehVYlkrJF3X-26" target="o90tf0dQoTygKEmvJ2A5-5">
          <mxGeometry relative="1" as="geometry" />
        </mxCell>
        <mxCell id="E84nc0efOehVYlkrJF3X-26" value="&lt;span style=&quot;text-align: start; caret-color: rgb(0, 0, 0);&quot;&gt;&lt;font style=&quot;font-size: 12px;&quot;&gt;看題回答問題&lt;/font&gt;&lt;/span&gt;" style="whiteSpace=wrap;html=1;labelBackgroundColor=none;fillColor=#182E3E;strokeColor=#FFFFFF;fontColor=#FFFFFF;" vertex="1" parent="1">
          <mxGeometry x="390" y="160" width="120" height="60" as="geometry" />
        </mxCell>
        <mxCell id="E84nc0efOehVYlkrJF3X-31" value="第二關流程圖" style="text;html=1;align=center;verticalAlign=middle;whiteSpace=wrap;rounded=0;labelBackgroundColor=none;fontColor=#1A1A1A;fillColor=#FFFFFF;strokeColor=#1A1A1A;" vertex="1" parent="1">
          <mxGeometry x="140" y="30" width="100" height="30" as="geometry" />
        </mxCell>
        <mxCell id="E84nc0efOehVYlkrJF3X-72" value="" style="edgeStyle=orthogonalEdgeStyle;rounded=0;orthogonalLoop=1;jettySize=auto;html=1;strokeColor=#23445D;" edge="1" parent="1" source="E84nc0efOehVYlkrJF3X-39" target="E84nc0efOehVYlkrJF3X-47">
          <mxGeometry relative="1" as="geometry" />
        </mxCell>
        <mxCell id="E84nc0efOehVYlkrJF3X-39" value="&lt;span style=&quot;text-align: start; caret-color: rgb(0, 0, 0);&quot;&gt;&lt;font style=&quot;font-size: 12px;&quot;&gt;掃描答案卡回答問題&lt;/font&gt;&lt;/span&gt;" style="rounded=0;whiteSpace=wrap;html=1;align=center;verticalAlign=middle;labelBackgroundColor=none;fillColor=#182E3E;strokeColor=#FFFFFF;fontColor=#FFFFFF;" vertex="1" parent="1">
          <mxGeometry x="390.52" y="660" width="120" height="40" as="geometry" />
        </mxCell>
        <mxCell id="E84nc0efOehVYlkrJF3X-46" value="" style="edgeStyle=orthogonalEdgeStyle;rounded=0;orthogonalLoop=1;jettySize=auto;html=1;strokeColor=#23445D;" edge="1" parent="1" source="E84nc0efOehVYlkrJF3X-42" target="E84nc0efOehVYlkrJF3X-39">
          <mxGeometry relative="1" as="geometry" />
        </mxCell>
        <mxCell id="E84nc0efOehVYlkrJF3X-71" style="edgeStyle=orthogonalEdgeStyle;rounded=0;orthogonalLoop=1;jettySize=auto;html=1;entryX=0.5;entryY=1;entryDx=0;entryDy=0;strokeColor=#23445D;" edge="1" parent="1" source="E84nc0efOehVYlkrJF3X-42" target="E84nc0efOehVYlkrJF3X-64">
          <mxGeometry relative="1" as="geometry" />
        </mxCell>
        <mxCell id="E84nc0efOehVYlkrJF3X-42" value="是否回答道最後？" style="rhombus;whiteSpace=wrap;html=1;align=center;verticalAlign=middle;labelBackgroundColor=none;fillColor=#182E3E;strokeColor=#FFFFFF;fontColor=#FFFFFF;" vertex="1" parent="1">
          <mxGeometry x="380.52" y="532" width="140" height="105" as="geometry" />
        </mxCell>
        <mxCell id="E84nc0efOehVYlkrJF3X-74" value="" style="edgeStyle=orthogonalEdgeStyle;rounded=0;orthogonalLoop=1;jettySize=auto;html=1;strokeColor=#23445D;" edge="1" parent="1" source="E84nc0efOehVYlkrJF3X-47" target="E84nc0efOehVYlkrJF3X-73">
          <mxGeometry relative="1" as="geometry" />
        </mxCell>
        <mxCell id="E84nc0efOehVYlkrJF3X-77" value="" style="edgeStyle=orthogonalEdgeStyle;rounded=0;orthogonalLoop=1;jettySize=auto;html=1;strokeColor=#23445D;" edge="1" parent="1" source="E84nc0efOehVYlkrJF3X-47" target="E84nc0efOehVYlkrJF3X-76">
          <mxGeometry relative="1" as="geometry" />
        </mxCell>
        <mxCell id="E84nc0efOehVYlkrJF3X-47" value="是否正確？" style="rhombus;whiteSpace=wrap;html=1;align=center;verticalAlign=middle;labelBackgroundColor=none;fillColor=#182E3E;strokeColor=#FFFFFF;fontColor=#FFFFFF;" vertex="1" parent="1">
          <mxGeometry x="380.52" y="730" width="140" height="105" as="geometry" />
        </mxCell>
        <mxCell id="E84nc0efOehVYlkrJF3X-52" value="否" style="text;html=1;align=center;verticalAlign=middle;whiteSpace=wrap;rounded=0;fontColor=#1A1A1A;" vertex="1" parent="1">
          <mxGeometry x="530" y="290" width="60" height="30" as="geometry" />
        </mxCell>
        <mxCell id="E84nc0efOehVYlkrJF3X-69" style="edgeStyle=orthogonalEdgeStyle;rounded=0;orthogonalLoop=1;jettySize=auto;html=1;entryX=1;entryY=0.5;entryDx=0;entryDy=0;strokeColor=#23445D;" edge="1" parent="1" source="E84nc0efOehVYlkrJF3X-64" target="E84nc0efOehVYlkrJF3X-26">
          <mxGeometry relative="1" as="geometry">
            <Array as="points">
              <mxPoint x="700" y="410" />
              <mxPoint x="700" y="190" />
            </Array>
          </mxGeometry>
        </mxCell>
        <mxCell id="E84nc0efOehVYlkrJF3X-64" value="繼續遊戲" style="rounded=0;whiteSpace=wrap;html=1;align=center;verticalAlign=middle;labelBackgroundColor=none;fillColor=#182E3E;strokeColor=#FFFFFF;fontColor=#FFFFFF;" vertex="1" parent="1">
          <mxGeometry x="560" y="390" width="120" height="40" as="geometry" />
        </mxCell>
        <mxCell id="E84nc0efOehVYlkrJF3X-79" value="" style="edgeStyle=orthogonalEdgeStyle;rounded=0;orthogonalLoop=1;jettySize=auto;html=1;strokeColor=#23445D;" edge="1" parent="1" source="E84nc0efOehVYlkrJF3X-73" target="E84nc0efOehVYlkrJF3X-78">
          <mxGeometry relative="1" as="geometry" />
        </mxCell>
        <mxCell id="E84nc0efOehVYlkrJF3X-73" value="加分" style="rounded=0;whiteSpace=wrap;html=1;align=center;verticalAlign=middle;labelBackgroundColor=none;fillColor=#182E3E;strokeColor=#FFFFFF;fontColor=#FFFFFF;" vertex="1" parent="1">
          <mxGeometry x="390.52" y="860" width="120" height="40" as="geometry" />
        </mxCell>
        <mxCell id="E84nc0efOehVYlkrJF3X-85" style="edgeStyle=orthogonalEdgeStyle;rounded=0;orthogonalLoop=1;jettySize=auto;html=1;entryX=1;entryY=0.5;entryDx=0;entryDy=0;strokeColor=#23445D;" edge="1" parent="1" source="E84nc0efOehVYlkrJF3X-76" target="E84nc0efOehVYlkrJF3X-78">
          <mxGeometry relative="1" as="geometry">
            <Array as="points">
              <mxPoint x="710" y="782" />
              <mxPoint x="710" y="1002" />
            </Array>
          </mxGeometry>
        </mxCell>
        <mxCell id="E84nc0efOehVYlkrJF3X-76" value="不加分" style="rounded=0;whiteSpace=wrap;html=1;align=center;verticalAlign=middle;labelBackgroundColor=none;fillColor=#182E3E;strokeColor=#FFFFFF;fontColor=#FFFFFF;" vertex="1" parent="1">
          <mxGeometry x="570" y="762.5" width="120" height="40" as="geometry" />
        </mxCell>
        <mxCell id="E84nc0efOehVYlkrJF3X-81" value="" style="edgeStyle=orthogonalEdgeStyle;rounded=0;orthogonalLoop=1;jettySize=auto;html=1;strokeColor=#23445D;" edge="1" parent="1" source="E84nc0efOehVYlkrJF3X-78" target="E84nc0efOehVYlkrJF3X-80">
          <mxGeometry relative="1" as="geometry" />
        </mxCell>
        <mxCell id="E84nc0efOehVYlkrJF3X-86" style="edgeStyle=orthogonalEdgeStyle;rounded=0;orthogonalLoop=1;jettySize=auto;html=1;entryX=0.5;entryY=1;entryDx=0;entryDy=0;strokeColor=#23445D;" edge="1" parent="1" source="E84nc0efOehVYlkrJF3X-78" target="E84nc0efOehVYlkrJF3X-20">
          <mxGeometry relative="1" as="geometry" />
        </mxCell>
        <mxCell id="E84nc0efOehVYlkrJF3X-78" value="&lt;span style=&quot;text-align: start; caret-color: rgb(0, 0, 0);&quot;&gt;&lt;font style=&quot;font-size: 12px;&quot;&gt;成績是否超過三題？&lt;/font&gt;&lt;/span&gt;" style="rhombus;whiteSpace=wrap;html=1;align=center;verticalAlign=middle;labelBackgroundColor=none;fillColor=#182E3E;strokeColor=#FFFFFF;fontColor=#FFFFFF;" vertex="1" parent="1">
          <mxGeometry x="380" y="950" width="140" height="105" as="geometry" />
        </mxCell>
        <mxCell id="E84nc0efOehVYlkrJF3X-80" value="進入下一關" style="rounded=0;whiteSpace=wrap;html=1;align=center;verticalAlign=middle;labelBackgroundColor=none;fillColor=#182E3E;strokeColor=#FFFFFF;fontColor=#FFFFFF;" vertex="1" parent="1">
          <mxGeometry x="390.52" y="1090" width="120" height="40" as="geometry" />
        </mxCell>
        <mxCell id="E84nc0efOehVYlkrJF3X-87" value="否" style="text;html=1;align=center;verticalAlign=middle;whiteSpace=wrap;rounded=0;fontColor=#1A1A1A;" vertex="1" parent="1">
          <mxGeometry x="530" y="555" width="60" height="30" as="geometry" />
        </mxCell>
        <mxCell id="E84nc0efOehVYlkrJF3X-88" value="否" style="text;html=1;align=center;verticalAlign=middle;whiteSpace=wrap;rounded=0;fontColor=#1A1A1A;" vertex="1" parent="1">
          <mxGeometry x="290" y="590" width="60" height="30" as="geometry" />
        </mxCell>
        <mxCell id="E84nc0efOehVYlkrJF3X-89" value="否" style="text;html=1;align=center;verticalAlign=middle;whiteSpace=wrap;rounded=0;fontColor=#1A1A1A;" vertex="1" parent="1">
          <mxGeometry x="510.52" y="760" width="60" height="30" as="geometry" />
        </mxCell>
      </root>
    </mxGraphModel>
  </diagram>
</mxfile>
